<svg xmlns="http://www.w3.org/2000/svg" height="591pt" version="1.1" viewBox="0 1 591 591.7235" width="591pt">
<g id="surface1">
<path d="M 296.363281 10.03125 L 19.464844 158.957031 L 573.257812 158.957031 Z M 296.363281 10.03125 " style=" stroke:none;fill-rule:nonzero;fill:rgb(56.078431%,83.137255%,100%);fill-opacity:1;" />
<path d="M 97.410156 197.800781 L 123.476562 197.800781 L 123.476562 484.984375 L 97.410156 484.984375 Z M 97.410156 197.800781 " style=" stroke:none;fill-rule:nonzero;fill:rgb(56.078431%,83.137255%,100%);fill-opacity:1;" />
<path d="M 299.554688 197.800781 L 325.625 197.800781 L 325.625 484.984375 L 299.554688 484.984375 Z M 299.554688 197.800781 " style=" stroke:none;fill-rule:nonzero;fill:rgb(56.078431%,83.137255%,100%);fill-opacity:1;" />
<path d="M 567.828125 523.832031 L 24.765625 523.832031 C 16.558594 523.902344 9.945312 530.570312 9.945312 538.78125 L 9.945312 582.417969 L 582.714844 582.417969 L 582.714844 538.78125 C 582.714844 530.550781 576.058594 523.867188 567.828125 523.832031 Z M 567.828125 523.832031 " style=" stroke:none;fill-rule:nonzero;fill:rgb(56.078431%,83.137255%,100%);fill-opacity:1;" />
<path d="M 501.703125 197.800781 L 527.769531 197.800781 L 527.769531 484.984375 L 501.703125 484.984375 Z M 501.703125 197.800781 " style=" stroke:none;fill-rule:nonzero;fill:rgb(56.078431%,83.137255%,100%);fill-opacity:1;" />
<path d="M 64.953125 197.800781 L 91.019531 197.800781 L 91.019531 484.984375 L 64.953125 484.984375 Z M 64.953125 197.800781 " style=" stroke:none;fill-rule:nonzero;fill:rgb(89.803922%,97.254902%,100%);fill-opacity:1;" />
<path d="M 39.78125 165.347656 L 552.941406 165.347656 L 552.941406 191.414062 L 39.78125 191.414062 Z M 39.78125 165.347656 " style=" stroke:none;fill-rule:nonzero;fill:rgb(89.803922%,97.254902%,100%);fill-opacity:1;" />
<path d="M 64.953125 491.375 L 527.832031 491.375 L 527.832031 517.441406 L 64.953125 517.441406 Z M 64.953125 491.375 " style=" stroke:none;fill-rule:nonzero;fill:rgb(89.803922%,97.254902%,100%);fill-opacity:1;" />
<path d="M 267.101562 197.800781 L 293.167969 197.800781 L 293.167969 484.984375 L 267.101562 484.984375 Z M 267.101562 197.800781 " style=" stroke:none;fill-rule:nonzero;fill:rgb(89.803922%,97.254902%,100%);fill-opacity:1;" />
<path d="M 469.246094 197.800781 L 495.3125 197.800781 L 495.3125 484.984375 L 469.246094 484.984375 Z M 469.246094 197.800781 " style=" stroke:none;fill-rule:nonzero;fill:rgb(89.803922%,97.254902%,100%);fill-opacity:1;" />
<path d="M 567.828125 514.246094 L 537.351562 514.246094 L 537.351562 201.1875 L 556.136719 201.1875 C 559.664062 201.1875 562.527344 198.328125 562.527344 194.800781 L 562.527344 168.542969 L 585.972656 168.542969 C 589.5 168.523438 592.347656 165.648438 592.328125 162.121094 C 592.316406 159.78125 591.03125 157.640625 588.976562 156.53125 L 299.363281 0.765625 C 297.472656 -0.253906 295.1875 -0.253906 293.292969 0.765625 L 3.746094 156.53125 C 0.640625 158.203125 -0.511719 162.082031 1.160156 165.1875 C 2.273438 167.242188 4.410156 168.527344 6.75 168.542969 L 30.199219 168.542969 L 30.199219 194.609375 C 30.199219 198.136719 33.058594 200.996094 36.585938 200.996094 L 55.371094 200.996094 L 55.371094 514.054688 L 24.894531 514.054688 C 11.34375 514.054688 0.363281 525.039062 0.363281 538.589844 C 0.363281 538.652344 0.363281 538.71875 0.363281 538.78125 L 0.363281 585.613281 C 0.363281 589.140625 3.222656 592 6.75 592 L 585.910156 592 C 589.433594 592 592.296875 589.140625 592.296875 585.613281 L 592.296875 538.78125 C 592.296875 525.253906 581.347656 514.285156 567.828125 514.246094 Z M 524.574219 481.789062 L 504.898438 481.789062 L 504.898438 200.996094 L 524.574219 200.996094 Z M 472.441406 481.789062 L 472.441406 200.996094 L 492.121094 200.996094 L 492.121094 481.789062 Z M 335.207031 481.789062 L 335.207031 200.996094 L 459.664062 200.996094 L 459.664062 481.789062 Z M 302.75 481.789062 L 302.75 200.996094 L 322.429688 200.996094 L 322.429688 481.789062 Z M 270.292969 481.789062 L 270.292969 200.996094 L 289.972656 200.996094 L 289.972656 481.789062 Z M 133.058594 481.789062 L 133.058594 200.996094 L 257.515625 200.996094 L 257.515625 481.789062 Z M 100.605469 481.789062 L 100.605469 200.996094 L 120.28125 200.996094 L 120.28125 481.789062 Z M 296.363281 13.671875 L 560.609375 155.761719 L 32.113281 155.761719 Z M 42.976562 168.539062 L 549.746094 168.539062 L 549.746094 188.21875 L 42.976562 188.21875 Z M 87.699219 200.996094 L 87.699219 481.789062 L 68.148438 481.789062 L 68.148438 200.996094 Z M 68.148438 494.570312 L 524.574219 494.570312 L 524.574219 514.246094 L 68.148438 514.246094 C 68.148438 514.246094 68.148438 494.570312 68.148438 494.570312 Z M 579.265625 579.160156 L 13.140625 579.160156 L 13.140625 538.78125 C 13.179688 532.316406 18.429688 527.089844 24.894531 527.089844 L 567.957031 527.089844 C 574.394531 527.121094 579.617188 532.339844 579.648438 538.78125 Z M 579.265625 579.160156 " style=" stroke:none;fill-rule:nonzero;fill:rgb(9.803922%,28.235294%,49.803922%);fill-opacity:1;" />
</g>
</svg>