<?xml version="1.0" encoding="iso-8859-1"?>
<!-- Generator: Adobe Illustrator 19.0.0, SVG Export Plug-In . SVG Version: 6.00 Build 0)  -->
<svg version="1.1" id="Layer_1" xmlns="http://www.w3.org/2000/svg" xmlns:xlink="http://www.w3.org/1999/xlink" x="0px" y="0px"
	 viewBox="0 0 512 512" style="enable-background:new 0 0 512 512;" xml:space="preserve">
<g transform="translate(1 1)">
	<path style="fill:#FFFFFF;" d="M475.16,434.2H34.84c-15.36,0-27.307-11.947-27.307-27.307V103.107
		C7.533,87.747,19.48,75.8,34.84,75.8h440.32c15.36,0,27.307,11.947,27.307,27.307v303.787
		C502.467,422.253,490.52,434.2,475.16,434.2L475.16,434.2z"/>
	<path style="fill:#0096E6;" d="M475.16,442.733H34.84C15.213,442.733-1,426.52-1,406.893V103.107
		c0-19.627,16.213-35.84,35.84-35.84h440.32c19.627,0,35.84,16.213,35.84,35.84v303.787C511,426.52,494.787,442.733,475.16,442.733z
		 M34.84,84.333c-10.24,0-18.773,8.533-18.773,18.773v303.787c0,10.24,8.533,18.773,18.773,18.773h440.32
		c10.24,0,18.773-8.533,18.773-18.773V103.107c0-10.24-8.533-18.773-18.773-18.773H34.84z"/>
	<path style="fill:#D0E8F9;" d="M400.067,178.2c0,28.16-23.04,51.2-51.2,51.2c-28.16,0-51.2-23.04-51.2-51.2s23.04-51.2,51.2-51.2
		C377.027,127,400.067,150.04,400.067,178.2L400.067,178.2z"/>
	<path style="fill:#0096E6;" d="M348.867,237.933c-33.28,0-59.733-26.453-59.733-59.733s26.453-59.733,59.733-59.733
		S408.6,144.92,408.6,178.2S382.147,237.933,348.867,237.933z M348.867,135.533c-23.893,0-42.667,18.773-42.667,42.667
		s18.773,42.667,42.667,42.667c23.893,0,42.667-18.773,42.667-42.667S372.76,135.533,348.867,135.533z"/>
	<path style="fill:#D0E8F9;" d="M459.8,178.2c0,28.16-23.04,51.2-51.2,51.2c-28.16,0-51.2-23.04-51.2-51.2s23.04-51.2,51.2-51.2
		C436.76,127,459.8,150.04,459.8,178.2L459.8,178.2z"/>
	<g>
		<path style="fill:#0096E6;" d="M408.6,237.933c-33.28,0-59.733-26.453-59.733-59.733s26.453-59.733,59.733-59.733
			s59.733,26.453,59.733,59.733S441.88,237.933,408.6,237.933z M408.6,135.533c-23.893,0-42.667,18.773-42.667,42.667
			s18.773,42.667,42.667,42.667c23.893,0,42.667-18.773,42.667-42.667S432.493,135.533,408.6,135.533z"/>
		<path style="fill:#0096E6;" d="M203.8,195.267h-17.067c-5.12,0-8.533-3.413-8.533-8.533c0-5.12,3.413-8.533,8.533-8.533H203.8
			c5.12,0,8.533,3.413,8.533,8.533C212.333,191.853,208.92,195.267,203.8,195.267z M152.6,195.267h-8.533
			c-5.12,0-8.533-3.413-8.533-8.533c0-5.12,3.413-8.533,8.533-8.533h8.533c5.12,0,8.533,3.413,8.533,8.533
			C161.133,191.853,157.72,195.267,152.6,195.267z M109.933,195.267H92.867c-5.12,0-8.533-3.413-8.533-8.533
			c0-5.12,3.413-8.533,8.533-8.533h17.067c5.12,0,8.533,3.413,8.533,8.533C118.467,191.853,115.053,195.267,109.933,195.267z
			 M58.733,195.267H50.2c-5.12,0-8.533-3.413-8.533-8.533c0-5.12,3.413-8.533,8.533-8.533h8.533c5.12,0,8.533,3.413,8.533,8.533
			C67.267,191.853,63.853,195.267,58.733,195.267z M237.933,152.6h-76.8c-5.12,0-8.533-3.413-8.533-8.533
			c0-5.12,3.413-8.533,8.533-8.533h76.8c5.12,0,8.533,3.413,8.533,8.533C246.467,149.187,243.053,152.6,237.933,152.6z M127,152.6
			H50.2c-5.12,0-8.533-3.413-8.533-8.533c0-5.12,3.413-8.533,8.533-8.533H127c5.12,0,8.533,3.413,8.533,8.533
			C135.533,149.187,132.12,152.6,127,152.6z"/>
	</g>
	<polygon style="fill:#D0E8F9;" points="50.2,323.267 127,323.267 127,374.467 50.2,374.467 	"/>
	<path style="fill:#0096E6;" d="M135.533,383H41.667v-68.267h93.867V383z M58.733,365.933h59.733V331.8H58.733V365.933z"/>
	<polygon style="fill:#D0E8F9;" points="161.133,323.267 237.933,323.267 237.933,374.467 161.133,374.467 	"/>
	<path style="fill:#0096E6;" d="M246.467,383H152.6v-68.267h93.867V383z M169.667,365.933H229.4V331.8h-59.733V365.933z"/>
	<polygon style="fill:#D0E8F9;" points="272.067,323.267 348.867,323.267 348.867,374.467 272.067,374.467 	"/>
	<path style="fill:#0096E6;" d="M357.4,383h-93.867v-68.267H357.4V383z M280.6,365.933h59.733V331.8H280.6V365.933z"/>
	<polygon style="fill:#D0E8F9;" points="383,323.267 459.8,323.267 459.8,374.467 383,374.467 	"/>
	<path style="fill:#0096E6;" d="M468.333,383h-93.867v-68.267h93.867V383z M391.533,365.933h59.733V331.8h-59.733V365.933z"/>
</g>
<g>
</g>
<g>
</g>
<g>
</g>
<g>
</g>
<g>
</g>
<g>
</g>
<g>
</g>
<g>
</g>
<g>
</g>
<g>
</g>
<g>
</g>
<g>
</g>
<g>
</g>
<g>
</g>
<g>
</g>
</svg>
